<svg width="1465.063" height="415.504" viewBox="0 0 1465.063 415.504" xmlns="http://www.w3.org/2000/svg"><g id="svgGroup" stroke-linecap="round" fill-rule="evenodd" font-size="9pt" stroke="#000" stroke-width="0.25mm" fill="black" style="stroke:#000;stroke-width:0.25mm;fill:black"><path d="M 962.563 131.503 L 949.563 153.003 A 11158.809 11158.809 0 0 1 945.031 160.628 Q 939.472 169.974 935.367 176.827 A 3479.473 3479.473 0 0 1 934.063 179.003 Q 928.729 187.893 926.556 192.041 A 57.638 57.638 0 0 0 926.063 193.003 Q 918.063 207.003 909.063 224.753 A 419.735 419.735 0 0 0 899.345 245.215 A 336.312 336.312 0 0 0 893.813 258.503 Q 887.563 274.503 887.563 284.503 Q 887.563 294.365 894.797 295.386 A 12.649 12.649 0 0 0 896.563 295.503 A 18.825 18.825 0 0 0 901.577 294.732 Q 906.59 293.333 913.295 289.397 A 111.956 111.956 0 0 0 919.063 285.753 Q 933.563 276.003 947.063 263.503 A 712.127 712.127 0 0 0 985.04 226.053 A 561.191 561.191 0 0 0 1010.313 197.253 A 346.804 346.804 0 0 0 1045.961 143.894 A 409.37 409.37 0 0 0 1057.063 122.003 Q 1063.835 108.102 1065.78 96.488 A 54.431 54.431 0 0 0 1066.563 87.503 A 29.04 29.04 0 0 0 1065.044 77.7 Q 1060.278 64.382 1040.563 64.003 A 21.267 21.267 0 0 1 1038.437 63.906 Q 1034.063 63.464 1034.063 61.003 A 3.961 3.961 0 0 1 1034.4 59.467 Q 1034.901 58.274 1036.149 56.932 A 16.343 16.343 0 0 1 1036.563 56.503 A 23.631 23.631 0 0 1 1051.507 49.646 A 32.069 32.069 0 0 1 1054.563 49.503 Q 1067.063 49.503 1075.563 57.753 Q 1084.063 66.003 1084.063 81.503 A 62.665 62.665 0 0 1 1082.765 93.605 Q 1080.391 105.601 1073.675 120.995 A 222.872 222.872 0 0 1 1072.563 123.503 A 551.882 551.882 0 0 1 1060.454 147.07 A 478.553 478.553 0 0 1 1056.313 154.503 Q 1048.063 169.003 1039.063 181.503 A 560.408 560.408 0 0 1 1025.8 199.038 A 440.388 440.388 0 0 1 1015.813 211.253 A 425.107 425.107 0 0 1 1000.676 228.109 A 516.397 516.397 0 0 1 990.563 238.503 A 1422.052 1422.052 0 0 1 979.078 249.847 Q 973.883 254.925 968.004 260.589 A 2988.931 2988.931 0 0 1 955.563 272.503 A 171.362 171.362 0 0 1 942.613 283.558 A 208.607 208.607 0 0 1 933.813 290.003 Q 921.563 298.503 909.563 303.753 A 78.353 78.353 0 0 1 901.667 306.742 Q 897.618 308.014 893.978 308.571 A 35.87 35.87 0 0 1 888.563 309.003 A 20.505 20.505 0 0 1 881.325 307.83 Q 872.334 304.45 871.624 291.327 A 42.998 42.998 0 0 1 871.563 289.003 A 54.027 54.027 0 0 1 872.149 281.445 Q 873.256 273.653 876.459 263.418 A 193.775 193.775 0 0 1 877.563 260.003 A 138.689 138.689 0 0 1 880.133 252.183 Q 882.031 246.91 884.563 241.003 Q 889.063 230.503 894.563 218.003 A 1400.097 1400.097 0 0 0 897.399 212.296 Q 898.668 209.728 900.084 206.842 A 2913.827 2913.827 0 0 0 903.063 200.753 Q 908.063 190.503 914.563 178.003 L 921.063 166.003 Q 926.846 154.918 927.055 149.873 A 8.939 8.939 0 0 0 927.063 149.503 Q 927.063 147.872 926.424 147.305 A 1.249 1.249 0 0 0 925.563 147.003 A 2.894 2.894 0 0 0 924.729 147.157 Q 923.424 147.564 921.043 149.047 A 57.017 57.017 0 0 0 919.563 150.003 Q 892.063 169.503 873.063 185.003 Q 854.063 200.503 837.063 218.503 A 419.233 419.233 0 0 0 828.117 229.089 A 508.746 508.746 0 0 0 822.563 236.003 Q 815.063 245.503 807.063 256.503 Q 792.303 290.496 777.943 316.686 A 503.253 503.253 0 0 1 774.563 322.753 A 301.233 301.233 0 0 1 766.844 335.675 Q 759.119 347.846 752.609 354.826 A 49.065 49.065 0 0 1 747.063 360.003 Q 735.063 369.003 727.063 369.003 A 8.636 8.636 0 0 1 724.412 368.632 Q 720.563 367.39 720.563 362.003 A 16.164 16.164 0 0 1 721.003 358.569 Q 722.246 352.972 727.001 343.159 A 194.293 194.293 0 0 1 728.063 341.003 A 139.116 139.116 0 0 1 733.21 332.011 Q 740.09 320.876 751.563 305.753 A 892.704 892.704 0 0 1 765.133 288.351 Q 777.438 272.941 793.063 254.503 Q 803.063 232.503 811.563 209.503 Q 820.063 186.503 827.063 162.003 Q 835.561 132.037 840.258 112.272 A 560.148 560.148 0 0 0 841.313 107.753 Q 844.731 92.819 845.69 81.122 A 105.806 105.806 0 0 0 846.063 72.503 A 56.115 56.115 0 0 0 845.164 61.964 Q 841.86 44.774 826.413 43.591 A 30.773 30.773 0 0 0 824.063 43.503 Q 786.563 43.503 746.563 70.503 Q 720.563 88.503 697.563 112.503 A 374.162 374.162 0 0 0 662.844 154.249 A 338.618 338.618 0 0 0 657.313 162.253 A 294.516 294.516 0 0 0 642.537 186.671 A 215.075 215.075 0 0 0 631.063 211.503 A 72.339 72.339 0 0 0 628.04 219.694 Q 626.063 226.343 626.063 232.003 A 20.898 20.898 0 0 0 627.008 238.577 Q 630.102 247.918 643.321 248.003 A 37.886 37.886 0 0 0 643.563 248.003 Q 652.563 248.003 669.563 242.003 Q 686.063 236.003 704.563 225.003 A 353.2 353.2 0 0 0 738.811 201.742 A 386.478 386.478 0 0 0 741.063 200.003 A 324.573 324.573 0 0 0 762 182.308 A 269.706 269.706 0 0 0 773.063 171.503 A 48.098 48.098 0 0 1 776.207 168.607 Q 779.403 165.936 781.978 165.003 A 7.617 7.617 0 0 1 784.563 164.503 A 3.599 3.599 0 0 1 785.552 164.627 Q 787.063 165.06 787.063 167.003 Q 787.063 170.003 782.563 174.503 Q 766.563 190.503 744.563 207.253 Q 722.563 224.003 700.063 237.503 Q 679.057 250.107 660.666 257.481 A 197.617 197.617 0 0 1 658.063 258.503 A 95.948 95.948 0 0 1 643.973 263.059 Q 635.719 265.003 628.063 265.003 Q 605.063 265.003 605.063 243.003 Q 605.063 232.831 609.286 219.756 A 142.369 142.369 0 0 1 613.063 209.503 A 213.733 213.733 0 0 1 627.031 181.753 Q 635.029 168.218 645.747 153.694 A 474.369 474.369 0 0 1 664.063 130.503 Q 689.063 101.503 717.813 77.753 A 305.423 305.423 0 0 1 752.218 52.987 A 250.477 250.477 0 0 1 776.063 40.003 A 160.334 160.334 0 0 1 800.768 30.557 Q 815.238 26.43 828.772 26.043 A 97.652 97.652 0 0 1 831.563 26.003 A 42.857 42.857 0 0 1 847.317 28.668 Q 866.067 36.046 867.871 63.853 A 95.088 95.088 0 0 1 868.063 70.003 A 143.603 143.603 0 0 1 867.074 86.351 Q 866.102 94.816 864.175 104.13 A 242.974 242.974 0 0 1 863.563 107.003 A 504.47 504.47 0 0 1 858.955 126.089 Q 856.411 135.845 853.243 146.669 A 899.955 899.955 0 0 1 851.063 154.003 Q 850.063 157.003 849.063 160.253 Q 848.063 163.503 847.063 167.003 Q 844.563 176.503 841.063 187.253 Q 837.563 198.003 832.563 210.503 Q 843.563 199.003 854.813 188.753 Q 866.063 178.503 877.563 169.003 A 1173.576 1173.576 0 0 1 885.041 162.981 Q 888.878 159.916 893.159 156.539 A 2016.284 2016.284 0 0 1 896.063 154.253 A 890.025 890.025 0 0 1 906.566 146.134 Q 912.891 141.316 920.063 136.003 A 110.624 110.624 0 0 1 930.042 129.158 Q 940.827 122.663 949.523 121.679 A 27.02 27.02 0 0 1 952.563 121.503 Q 957.208 121.503 960.205 123.452 A 9.89 9.89 0 0 1 961.813 124.753 Q 965.006 127.946 962.648 131.381 A 7.986 7.986 0 0 1 962.563 131.503 Z M 145.563 137.003 L 160.563 133.503 Q 185.063 128.003 206.313 124.753 Q 227.563 121.503 245.063 121.503 A 171.073 171.073 0 0 1 260.793 122.174 Q 276.463 123.626 286.167 128.228 A 36.729 36.729 0 0 1 291.063 131.003 A 9.941 9.941 0 0 1 291.967 131.677 Q 295.053 134.287 291.063 136.503 Q 288.063 137.503 286.563 137.503 Q 284.397 137.503 281.857 136.378 A 18.822 18.822 0 0 1 281.063 136.003 A 33.051 33.051 0 0 0 272.742 132.347 Q 264.813 130.003 253.563 130.003 A 152.832 152.832 0 0 0 235.226 131.273 Q 215.744 133.66 187.791 140.531 A 884.535 884.535 0 0 0 159.563 148.003 Q 149.068 150.724 136.006 156.013 A 309.973 309.973 0 0 0 128.313 159.253 Q 110.563 167.003 93.313 176.003 A 605.872 605.872 0 0 0 79.032 183.687 Q 70.375 188.503 63.063 193.003 A 407.573 407.573 0 0 0 56.196 204.745 Q 51 214.003 47.563 221.503 Q 42.063 233.503 36.563 251.503 A 125.683 125.683 0 0 0 32.256 267.829 A 92.295 92.295 0 0 0 30.563 285.003 Q 30.563 304.503 39.813 316.003 Q 49.063 327.503 67.063 327.503 A 164.042 164.042 0 0 0 90.81 325.642 Q 102.585 323.913 115.756 320.58 A 341.1 341.1 0 0 0 132.063 316.003 Q 169.063 304.003 202.813 285.253 A 334.477 334.477 0 0 0 225.83 271.303 Q 236.667 264.082 245.337 256.824 A 156.689 156.689 0 0 0 255.563 247.503 Q 259.798 243.268 262.788 243.268 A 3.826 3.826 0 0 1 265.063 244.003 L 265.563 245.503 A 4.351 4.351 0 0 1 265.21 247.12 Q 264.375 249.191 261.563 252.003 Q 247.969 265.597 226.291 279.884 A 420.835 420.835 0 0 1 204.063 293.503 Q 179.563 307.503 153.063 318.503 A 394.056 394.056 0 0 1 119.035 330.895 A 330.788 330.788 0 0 1 101.813 335.753 A 226.96 226.96 0 0 1 81.066 340.026 Q 70.305 341.694 60.615 341.955 A 132.089 132.089 0 0 1 57.063 342.003 A 57.162 57.162 0 0 1 42.52 340.26 A 39.105 39.105 0 0 1 21.813 327.253 A 51.302 51.302 0 0 1 11.432 305.842 Q 9.563 297.878 9.563 288.503 Q 9.563 269.503 16.063 251.503 Q 17.063 248.003 18.313 242.753 Q 19.172 239.144 20.15 234.707 A 745.166 745.166 0 0 0 21.063 230.503 A 51.805 51.805 0 0 1 21.11 230.222 Q 22.601 221.571 27.443 210.859 A 146.249 146.249 0 0 1 31.563 202.503 A 70.969 70.969 0 0 1 24.734 208.541 A 56.476 56.476 0 0 1 19.313 212.253 Q 14.234 215.3 11.962 215.872 A 3.78 3.78 0 0 1 11.063 216.003 A 11.362 11.362 0 0 1 3.31 212.978 A 14.662 14.662 0 0 1 3.063 212.753 A 9.378 9.378 0 0 1 0.204 207.372 Q -0.097 205.695 0.046 203.713 A 19.035 19.035 0 0 1 0.063 203.503 Q 2.563 186.003 12.813 180.253 A 89.829 89.829 0 0 1 21.25 176.132 Q 29.305 172.667 40.063 169.503 A 5.683 5.683 0 0 1 40.656 169.253 Q 41.349 169.001 42.423 168.749 A 35.396 35.396 0 0 1 43.563 168.503 Q 46.063 168.003 50.063 167.503 Q 54.063 166.503 56.813 165.503 Q 59.563 164.503 60.563 164.003 A 402.601 402.601 0 0 1 97.707 109.927 A 321.227 321.227 0 0 1 132.563 73.503 A 312.743 312.743 0 0 1 181.483 36.581 A 259.228 259.228 0 0 1 217.813 18.253 A 245.845 245.845 0 0 1 276.224 2.16 A 215.923 215.923 0 0 1 306.563 0.003 Q 322.063 0.003 334.813 7.503 A 31.679 31.679 0 0 1 341.399 12.538 A 20.612 20.612 0 0 1 347.563 27.503 Q 347.563 30.934 346.981 33.493 A 15.946 15.946 0 0 1 346.563 35.003 Q 340.563 53.503 335.313 63.253 A 75.203 75.203 0 0 1 326.927 75.583 A 93.452 93.452 0 0 1 321.063 82.003 A 19.954 19.954 0 0 1 316.155 85.665 A 16.258 16.258 0 0 1 308.563 87.503 A 8.638 8.638 0 0 1 306.188 87.206 Q 303.526 86.443 302.818 83.725 A 8.84 8.84 0 0 1 302.563 81.503 Q 302.563 77.191 305.777 71.041 A 49.625 49.625 0 0 1 306.063 70.503 Q 306.828 69.738 308.18 68.532 A 126.627 126.627 0 0 1 309.063 67.753 Q 311.063 66.003 313.563 64.003 Q 320.4 58.246 325.036 53.265 A 71.326 71.326 0 0 0 328.313 49.503 Q 333.235 43.41 336.618 34.24 A 78.046 78.046 0 0 0 337.063 33.003 Q 340.563 22.503 329.063 18.503 Q 318.287 14.755 303.999 14.519 A 117.232 117.232 0 0 0 302.063 14.503 A 167.953 167.953 0 0 0 253.132 22.072 A 216.221 216.221 0 0 0 225.813 32.503 A 295.131 295.131 0 0 0 177.336 60.863 A 371.964 371.964 0 0 0 148.813 83.503 Q 111.063 116.503 79.063 161.503 A 348.224 348.224 0 0 1 93.833 154.532 A 298.227 298.227 0 0 1 100.313 151.753 Q 110.563 147.503 120.563 144.003 Q 123.563 143.003 129.813 141.003 A 111.779 111.779 0 0 1 134.899 139.519 Q 137.243 138.89 139.909 138.261 A 240.119 240.119 0 0 1 145.563 137.003 Z M 1430.563 236.003 L 1428.563 235.503 A 1.391 1.391 0 0 0 1427.774 235.268 Q 1426.455 235.268 1424.378 237.419 A 20.371 20.371 0 0 0 1424.063 237.753 Q 1421.063 241.003 1418.063 244.753 Q 1415.063 248.503 1414.063 250.003 Q 1412.608 251.943 1406.688 258.348 A 634.017 634.017 0 0 1 1406.313 258.753 Q 1400.063 265.503 1391.563 273.753 Q 1383.063 282.003 1374.563 290.003 A 509.035 509.035 0 0 1 1370.469 293.816 Q 1364.753 299.078 1360.354 302.76 A 176.386 176.386 0 0 1 1360.063 303.003 Q 1352.563 309.503 1341.563 309.503 A 18.868 18.868 0 0 1 1335.586 308.511 A 21.151 21.151 0 0 1 1335.563 308.503 A 10.768 10.768 0 0 1 1332.079 305.591 Q 1330.472 303.478 1330.146 300.549 A 13.955 13.955 0 0 1 1330.063 299.003 Q 1330.063 292.552 1335.824 280.915 A 151.757 151.757 0 0 1 1340.063 273.003 A 191.809 191.809 0 0 1 1345.483 264.219 Q 1351.801 254.521 1361.209 242.043 A 633.133 633.133 0 0 1 1362.563 240.253 Q 1377.563 220.503 1395.563 206.503 A 73.356 73.356 0 0 1 1408.799 197.885 A 57.724 57.724 0 0 1 1422.563 193.003 Q 1425.063 192.503 1427.563 192.253 Q 1430.063 192.003 1432.563 191.503 L 1437.063 191.503 Q 1439.063 191.503 1441.063 191.003 A 3.975 3.975 0 0 0 1441.293 190.992 Q 1442.299 190.921 1447.089 190.431 A 1719.898 1719.898 0 0 0 1448.813 190.253 Q 1455.715 189.539 1457.859 185.879 A 6.459 6.459 0 0 0 1458.063 185.503 L 1459.563 185.003 Q 1461.219 185.003 1462.875 186.375 A 9.948 9.948 0 0 1 1463.563 187.003 A 3.822 3.822 0 0 1 1464.354 188.234 Q 1465.063 189.91 1465.063 193.003 Q 1465.063 194.503 1464.563 196.753 A 19.497 19.497 0 0 0 1464.221 198.866 Q 1464.102 199.953 1464.073 201.174 A 34.141 34.141 0 0 0 1464.063 202.003 L 1464.063 202.503 A 107.67 107.67 0 0 1 1460.754 228.532 A 131.697 131.697 0 0 1 1457.063 240.753 Q 1450.063 260.503 1442.063 281.003 Q 1425.563 322.503 1400.313 358.003 A 222.083 222.083 0 0 1 1376.352 386.582 A 160.891 160.891 0 0 1 1344.563 411.503 A 28.69 28.69 0 0 1 1338.57 414.341 A 22.142 22.142 0 0 1 1331.563 415.503 A 20.635 20.635 0 0 1 1315.916 408.474 A 31.032 31.032 0 0 1 1313.313 405.253 Q 1306.063 395.003 1306.063 382.003 A 58.534 58.534 0 0 1 1306.3 376.532 Q 1306.906 370.097 1309.063 366.503 A 25.386 25.386 0 0 1 1310.91 364.227 Q 1312.991 361.971 1314.928 361.294 A 4.933 4.933 0 0 1 1316.563 361.003 A 5.077 5.077 0 0 1 1318.218 361.251 Q 1320.47 362.026 1320.559 365.235 A 9.675 9.675 0 0 1 1320.563 365.503 A 11.592 11.592 0 0 1 1319.505 370.253 Q 1318.827 371.777 1317.713 373.3 A 20.549 20.549 0 0 1 1317.563 373.503 A 8.823 8.823 0 0 0 1315.874 377.081 Q 1315.582 378.341 1315.564 379.807 A 15.781 15.781 0 0 0 1315.563 380.003 A 24.293 24.293 0 0 0 1317.612 389.605 A 33.357 33.357 0 0 0 1320.563 395.003 A 21.814 21.814 0 0 0 1323.697 398.785 Q 1327.634 402.503 1332.563 402.503 Q 1333.563 402.503 1334.563 402.253 Q 1335.235 402.085 1336.132 401.805 A 52.923 52.923 0 0 0 1337.063 401.503 A 74.541 74.541 0 0 0 1358.553 388.497 Q 1366.323 381.914 1373.576 372.805 A 151.075 151.075 0 0 0 1380.063 364.003 A 288.167 288.167 0 0 0 1411.275 302.42 A 318.426 318.426 0 0 0 1412.063 300.253 Q 1424.563 265.503 1430.563 236.003 Z M 1306.063 278.003 L 1317.063 270.503 L 1328.063 263.503 A 3.35 3.35 0 0 1 1328.722 263.267 Q 1329.418 263.088 1330.48 263.03 A 20.115 20.115 0 0 1 1331.563 263.003 Q 1334.563 263.003 1331.563 267.503 Q 1301.421 304.822 1281.351 306.431 A 22.371 22.371 0 0 1 1279.563 306.503 A 22.449 22.449 0 0 1 1272.188 305.229 A 25.622 25.622 0 0 1 1271.563 305.003 A 5.79 5.79 0 0 1 1269.273 303.141 Q 1267.906 301.364 1267.027 298.188 A 30.135 30.135 0 0 1 1266.563 296.253 A 84.187 84.187 0 0 1 1265.176 286.703 A 103.799 103.799 0 0 1 1264.813 280.503 Q 1264.621 273.996 1264.576 269.832 A 217.611 217.611 0 0 1 1264.563 267.503 L 1265.063 251.003 Q 1265.063 244.698 1263.079 242.179 A 4.25 4.25 0 0 0 1259.563 240.503 Q 1247.334 240.503 1201.48 287.844 A 1072.599 1072.599 0 0 0 1195.563 294.003 A 83.953 83.953 0 0 1 1193.281 296.722 Q 1190.639 299.751 1186.8 303.711 A 344.491 344.491 0 0 1 1183.063 307.503 A 38.32 38.32 0 0 1 1177.883 311.894 Q 1171.973 316.003 1166.063 316.003 A 16.972 16.972 0 0 1 1162.778 315.715 Q 1157.578 314.684 1157.109 309.973 A 9.794 9.794 0 0 1 1157.063 309.003 A 16.591 16.591 0 0 1 1157.429 305.698 Q 1158.094 302.446 1159.964 298.267 A 60.447 60.447 0 0 1 1160.313 297.503 Q 1163.563 290.503 1167.063 284.003 A 840.428 840.428 0 0 0 1180.469 259.066 A 739.308 739.308 0 0 0 1184.563 251.003 A 526.08 526.08 0 0 0 1196.281 225.878 A 598.511 598.511 0 0 0 1200.063 217.003 A 18.249 18.249 0 0 1 1202.169 213.318 Q 1205.422 209.003 1210.563 209.003 Q 1218.041 209.003 1215.08 217.951 A 25.045 25.045 0 0 1 1215.063 218.003 Q 1212.063 225.503 1209.063 231.503 Q 1196.79 256.487 1195.276 267.254 A 19.901 19.901 0 0 0 1195.063 270.003 Q 1195.063 274.503 1198.063 275.503 L 1208.563 267.253 Q 1211.68 264.804 1212.417 264.14 A 3.976 3.976 0 0 0 1212.563 264.003 Q 1219.098 258.869 1227.158 252.208 A 1093.937 1093.937 0 0 0 1228.313 251.253 Q 1237.063 244.003 1247.563 234.503 A 105.277 105.277 0 0 1 1255.41 227.985 Q 1266.791 219.503 1275.063 219.503 A 9.85 9.85 0 0 1 1284.57 225.384 Q 1287.583 231.506 1286.563 244.003 Q 1286.063 253.503 1286.563 262.503 A 13.05 13.05 0 0 1 1286.821 263.885 Q 1287.015 265.302 1287.053 267.267 A 51.065 51.065 0 0 1 1287.063 268.253 L 1287.063 277.003 Q 1287.063 281.643 1292.228 281.977 A 12.915 12.915 0 0 0 1293.063 282.003 Q 1300.063 282.003 1306.063 278.003 Z M 1096.563 264.003 L 1071.063 288.503 L 1057.063 302.003 A 98.004 98.004 0 0 1 1050.54 308.004 Q 1043.844 313.582 1038.409 315.499 A 16.109 16.109 0 0 1 1033.063 316.503 A 8.642 8.642 0 0 1 1029.668 315.855 A 8.149 8.149 0 0 1 1026.563 313.503 A 19.892 19.892 0 0 1 1026.493 313.417 Q 1022.063 307.941 1022.063 300.003 A 46.168 46.168 0 0 1 1023.603 288.468 Q 1024.877 283.526 1027.205 278.296 A 78.576 78.576 0 0 1 1027.563 277.503 Q 1033.063 265.503 1040.563 254.253 Q 1046.305 245.64 1051.168 239.225 A 180.836 180.836 0 0 1 1054.063 235.503 A 213.921 213.921 0 0 1 1066.126 221.792 Q 1074.852 212.738 1083.313 206.503 A 56.761 56.761 0 0 1 1096.715 199.055 A 45.482 45.482 0 0 1 1113.063 196.003 Q 1121.563 196.003 1129.813 199.003 Q 1138.063 202.003 1145.063 209.003 L 1145.563 209.503 A 2.114 2.114 0 0 1 1145.204 210.64 Q 1144.746 211.364 1143.706 212.088 A 11.315 11.315 0 0 1 1143.063 212.503 A 18.875 18.875 0 0 1 1142.462 213.079 Q 1142.145 213.37 1141.858 213.6 A 7.657 7.657 0 0 1 1141.313 214.003 A 10.047 10.047 0 0 0 1140.704 214.441 Q 1140.344 214.722 1140.063 215.003 A 43.977 43.977 0 0 0 1136.368 219.271 Q 1131.836 225.16 1126.563 235.003 Q 1119.063 249.003 1113.563 264.253 A 116.425 116.425 0 0 0 1110.431 274.236 Q 1109.099 279.326 1108.516 283.837 A 52.106 52.106 0 0 0 1108.063 290.503 A 31.225 31.225 0 0 0 1108.375 295.097 Q 1109.313 301.378 1113.063 304.003 Q 1115.563 305.503 1118.563 305.503 A 15.071 15.071 0 0 0 1122.738 304.835 Q 1128.387 303.191 1136.563 297.503 A 5.095 5.095 0 0 1 1136.841 297.249 Q 1137.445 296.73 1138.813 295.753 L 1144.063 292.003 A 26.418 26.418 0 0 1 1145.969 290.691 Q 1147.907 289.488 1149.416 289.142 A 5.148 5.148 0 0 1 1150.563 289.003 A 4.587 4.587 0 0 1 1151.475 289.086 Q 1152.883 289.373 1153.042 290.658 A 2.801 2.801 0 0 1 1153.063 291.003 A 5.739 5.739 0 0 1 1152.59 293.184 Q 1151.855 294.972 1149.976 297.046 A 26.878 26.878 0 0 1 1149.063 298.003 Q 1146.063 300.503 1142.313 303.503 Q 1138.563 306.503 1133.563 309.503 A 73.592 73.592 0 0 1 1121.053 316.952 A 66.51 66.51 0 0 1 1118.063 318.253 A 64.039 64.039 0 0 1 1113.577 319.897 Q 1108.578 321.503 1105.063 321.503 Q 1104.063 321.503 1103.063 321.253 A 9.545 9.545 0 0 1 1101.438 320.682 A 10.875 10.875 0 0 1 1101.063 320.503 Q 1094.063 317.003 1092.063 310.503 Q 1090.333 304.884 1090.847 296.647 A 70.929 70.929 0 0 1 1091.063 294.003 Q 1092.063 290.003 1093.313 280.003 A 135.943 135.943 0 0 1 1094.167 274.144 Q 1095.18 268.176 1096.541 264.069 A 40.573 40.573 0 0 1 1096.563 264.003 Z M 415.813 310.753 A 19.586 19.586 0 0 0 417.552 312.531 Q 423.637 318.003 434.063 318.003 A 37.079 37.079 0 0 0 437.485 317.838 Q 440.448 317.563 443.793 316.831 A 77.927 77.927 0 0 0 450.563 315.003 A 95.14 95.14 0 0 0 452.8 314.226 Q 457.695 312.458 463.008 309.958 A 168.227 168.227 0 0 0 473.563 304.503 Q 486.063 297.503 497.063 289.503 Q 505.313 283.503 510.188 279.472 A 91.371 91.371 0 0 0 513.063 277.003 Q 514.84 275.226 515.354 273.954 A 2.559 2.559 0 0 0 515.563 273.003 Q 515.563 271.503 514.063 271.503 A 1.846 1.846 0 0 0 514.051 271.503 Q 510.522 271.526 486.391 284.902 A 1082.009 1082.009 0 0 0 479.063 289.003 Q 474.063 291.503 468.313 294.503 Q 462.563 297.503 456.063 301.003 A 62.256 62.256 0 0 1 451.318 302.895 Q 448.399 303.914 445.789 304.441 A 26.512 26.512 0 0 1 440.563 305.003 A 17.589 17.589 0 0 1 436.715 304.607 A 11.248 11.248 0 0 1 430.063 300.503 A 16.094 16.094 0 0 1 427.097 294.091 A 22.962 22.962 0 0 1 426.563 289.003 Q 426.563 274.003 435.563 261.503 A 114.734 114.734 0 0 1 439.275 256.613 Q 441.346 254.021 443.848 251.131 A 271.007 271.007 0 0 1 449.563 244.753 Q 458.563 235.003 468.563 226.253 A 136.175 136.175 0 0 1 470.218 224.828 Q 479.33 217.109 487.813 212.753 Q 494.571 209.283 499.327 209.683 A 9.725 9.725 0 0 1 502.563 210.503 A 23.162 23.162 0 0 0 502.65 212.559 Q 502.818 214.437 503.305 215.995 A 10.663 10.663 0 0 0 505.313 219.753 A 11.112 11.112 0 0 0 507.012 221.397 A 7.311 7.311 0 0 0 511.563 223.003 A 10.517 10.517 0 0 0 512.229 222.983 Q 517.622 222.64 518.759 216.622 A 19.596 19.596 0 0 0 519.063 213.003 A 25.454 25.454 0 0 0 518.68 208.478 A 18.36 18.36 0 0 0 517.063 203.503 Q 514.063 195.503 504.563 195.503 A 25.909 25.909 0 0 0 504.448 195.504 Q 494.481 195.548 480.313 203.253 Q 466.063 211.003 451.313 223.753 Q 436.563 236.503 424.563 252.003 A 82.335 82.335 0 0 0 416.177 265.218 A 59.1 59.1 0 0 0 409.563 292.003 Q 409.563 303.503 415.813 310.753 Z M 252.944 315.162 A 5.355 5.355 0 0 0 258.063 318.503 A 10.467 10.467 0 0 0 262.839 317.38 A 12.577 12.577 0 0 0 266.063 315.003 A 149.854 149.854 0 0 1 270.933 304.979 Q 274.299 298.623 278.695 291.527 A 348.745 348.745 0 0 1 288.063 277.253 Q 303.063 255.503 321.563 240.003 A 88.103 88.103 0 0 1 328.971 234.088 Q 334.696 230.026 340.255 227.686 A 37.991 37.991 0 0 1 355.063 224.503 A 75.08 75.08 0 0 1 355.72 224.506 Q 358.673 224.532 360.195 224.796 A 6.093 6.093 0 0 1 361.063 225.003 A 4.924 4.924 0 0 0 363.328 226.292 A 6.763 6.763 0 0 0 365.063 226.503 A 9.054 9.054 0 0 0 369.452 225.299 Q 370.929 224.489 372.406 223.133 A 25.655 25.655 0 0 0 375.063 220.253 Q 377.817 216.811 379.054 213.596 A 14.139 14.139 0 0 0 380.063 208.503 A 9.139 9.139 0 0 0 379.985 207.287 Q 379.435 203.194 374.983 202.272 A 14.461 14.461 0 0 0 372.063 202.003 Q 365.805 202.003 357.613 205.388 A 82.255 82.255 0 0 0 350.063 209.003 A 208.476 208.476 0 0 0 336.517 217.01 A 286.558 286.558 0 0 0 322.313 226.753 Q 307.563 237.503 293.563 250.003 A 38.157 38.157 0 0 1 293.674 249.4 Q 294.922 242.94 299.569 229.942 A 490.756 490.756 0 0 1 303.063 220.503 A 1186.607 1186.607 0 0 0 304.535 216.655 Q 306.077 212.606 307.272 209.365 A 530.537 530.537 0 0 0 307.313 209.253 Q 309.063 204.503 310.063 201.003 A 11.666 11.666 0 0 0 310.436 199.983 Q 311.737 195.798 307.761 195.13 A 10.321 10.321 0 0 0 306.063 195.003 A 6.288 6.288 0 0 0 304.074 195.333 Q 302.069 195.997 300.063 198.003 Q 295.063 208.003 289.313 220.003 Q 283.563 232.003 277.063 245.003 A 679.666 679.666 0 0 1 276.765 245.675 A 737.634 737.634 0 0 1 256.063 288.503 A 47.321 47.321 0 0 0 255.786 289.066 A 40.77 40.77 0 0 0 251.563 307.003 A 36.978 36.978 0 0 0 251.588 308.407 Q 251.751 312.695 252.944 315.162 Z M 1391.563 260.503 L 1401.063 251.503 Q 1408.063 244.503 1416.063 235.003 A 169.24 169.24 0 0 0 1424.272 224.474 A 132.362 132.362 0 0 0 1429.563 216.503 A 67.694 67.694 0 0 0 1431.969 212.253 Q 1435.063 206.253 1435.063 202.503 Q 1435.063 198.382 1430.449 198.035 A 11.839 11.839 0 0 0 1429.563 198.003 A 14.044 14.044 0 0 0 1425.863 198.56 Q 1421.244 199.831 1414.813 204.003 A 152.62 152.62 0 0 0 1404.248 211.544 A 193.975 193.975 0 0 0 1395.813 218.503 Q 1386.063 227.003 1379.063 235.003 Q 1372.563 241.503 1366.813 249.253 Q 1361.063 257.003 1355.563 265.503 Q 1351.297 271.738 1348.754 276.895 A 48.547 48.547 0 0 0 1346.563 282.003 A 31.06 31.06 0 0 0 1345.906 283.792 Q 1344.685 287.491 1345.232 289.569 A 3.211 3.211 0 0 0 1346.563 291.503 Q 1348.1 292.272 1349.046 292.45 A 2.819 2.819 0 0 0 1349.563 292.503 Q 1352.063 292.503 1357.063 290.003 Q 1360.563 288.003 1364.313 285.003 L 1373.063 278.003 A 45.376 45.376 0 0 0 1375.828 275.847 Q 1378.25 273.816 1381.063 271.003 L 1391.563 260.503 Z M 367.063 271.503 L 372.563 260.503 A 4.441 4.441 0 0 0 373.036 259.922 Q 373.792 258.846 374.865 256.504 A 64.213 64.213 0 0 0 375.313 255.503 Q 376.893 251.89 379.902 246.237 A 288.634 288.634 0 0 1 380.563 245.003 A 157.432 157.432 0 0 0 382.977 239.964 Q 384.239 237.198 385.224 234.709 A 83.956 83.956 0 0 0 386.063 232.503 A 78.47 78.47 0 0 0 388.129 225.986 A 63.801 63.801 0 0 0 389.063 222.003 Q 389.063 221.503 391.063 220.003 A 27.764 27.764 0 0 1 393.75 218.213 A 23.52 23.52 0 0 1 395.063 217.503 L 398.063 217.003 Q 401.673 217.003 404.265 218.225 A 10.444 10.444 0 0 1 404.813 218.503 Q 407.253 219.835 406.74 221.953 A 4.047 4.047 0 0 1 406.563 222.503 A 1939.003 1939.003 0 0 0 404.078 227.847 Q 403.102 229.956 402.223 231.871 A 1043.2 1043.2 0 0 0 400.563 235.503 A 212.382 212.382 0 0 0 398.828 239.417 Q 397.5 242.503 396.563 245.003 L 396.063 245.003 A 299.488 299.488 0 0 0 390.009 259.774 A 242.132 242.132 0 0 0 386.813 268.753 A 66.947 66.947 0 0 0 384.231 279.026 Q 383.504 283.436 383.504 287.633 A 47.458 47.458 0 0 0 383.563 290.003 L 384.063 303.503 A 16.17 16.17 0 0 1 382.768 308.523 A 14.256 14.256 0 0 1 380.563 312.003 Q 378.654 313.435 375.379 315.549 A 186.869 186.869 0 0 1 375.063 315.753 A 50.369 50.369 0 0 1 372.156 317.476 Q 369.5 318.941 366.063 320.503 Q 365.563 321.003 363.563 321.003 A 10.646 10.646 0 0 1 363.5 321.003 Q 359.535 320.98 356.063 318.003 A 9.832 9.832 0 0 1 352.588 310.848 A 13.583 13.583 0 0 1 352.563 310.003 Q 352.563 299.503 367.063 271.503 Z M 1048.563 289.503 A 13.561 13.561 0 0 0 1054.244 287.912 Q 1062.803 283.789 1077.565 268.982 A 359.83 359.83 0 0 0 1087.563 258.503 Q 1095.063 250.003 1101.063 242.253 Q 1107.063 234.503 1112.063 227.003 A 85.448 85.448 0 0 0 1114.856 222.184 Q 1120.535 211.537 1118.063 207.003 Q 1116.667 204.213 1112.677 204.018 A 12.59 12.59 0 0 0 1112.063 204.003 A 14.742 14.742 0 0 0 1108.444 204.51 Q 1103.742 205.71 1097.063 209.753 Q 1087.563 215.503 1077.813 224.503 A 266.559 266.559 0 0 0 1064.436 237.722 A 230.43 230.43 0 0 0 1060.063 242.503 A 60.26 60.26 0 0 0 1056.11 248.245 Q 1054.348 251.12 1052.586 254.56 A 140.35 140.35 0 0 0 1049.063 262.003 A 93.581 93.581 0 0 0 1046.282 269.029 Q 1043.849 276.05 1043.593 281.292 A 24.784 24.784 0 0 0 1043.563 282.503 A 14.519 14.519 0 0 0 1043.753 284.971 Q 1044.519 289.388 1048.361 289.5 A 6.929 6.929 0 0 0 1048.563 289.503 Z M 405.937 198.406 A 21.267 21.267 0 0 0 408.063 198.503 Q 414.063 198.503 418.563 197.003 Q 422.156 195.566 426.525 191.287 A 63.677 63.677 0 0 0 430.063 187.503 A 95.395 95.395 0 0 0 432.063 185.117 A 105.087 105.087 0 0 0 441.813 170.753 Q 445.176 164.828 446.385 160.03 A 20.641 20.641 0 0 0 447.063 155.003 Q 447.063 152.753 446.781 151.628 A 3.086 3.086 0 0 0 446.563 151.003 Q 437.563 163.003 431.313 168.003 A 93.077 93.077 0 0 1 431.033 168.226 Q 424.819 173.158 414.063 180.003 Q 409.063 183.503 405.313 188.253 A 47.106 47.106 0 0 0 405.257 188.324 Q 402.58 191.728 401.843 193.968 A 4.967 4.967 0 0 0 401.563 195.503 Q 401.563 197.964 405.937 198.406 Z" vector-effect="non-scaling-stroke"/></g></svg>